<svg version="1.1" id="Layer_1" xmlns="http://www.w3.org/2000/svg"
    xmlns:xlink="http://www.w3.org/1999/xlink" x="0px" y="0px" width="100%" viewBox="0 0 419 232"
    enable-background="new 0 0 419 232" xml:space="preserve">
<path fill="#FDFDFE" opacity="1.000000" stroke="none" d="
M251.000000,233.000000 
	C167.333359,233.000000 84.166725,233.000000 1.000067,233.000000 
	C1.000045,155.666718 1.000045,78.333450 1.000022,1.000129 
	C140.666550,1.000086 280.333099,1.000086 419.999756,1.000043 
	C419.999817,78.333199 419.999817,155.666397 419.999908,232.999786 
	C363.833344,233.000000 307.666656,233.000000 251.000000,233.000000 
M111.780670,154.370667 
	C111.432144,154.255951 111.161522,154.363358 110.470299,155.125931 
	C110.194641,155.720398 109.918991,156.314850 109.069794,157.089218 
	C109.050537,158.062317 109.031288,159.035400 108.993378,160.676758 
	C108.926720,161.116959 108.860054,161.557144 108.333206,162.468704 
	C108.261024,163.337692 108.188835,164.206665 108.117828,165.109238 
	C108.117828,165.109238 108.143906,165.130432 107.387970,165.052963 
	C106.636055,165.019928 105.884148,164.986908 105.048950,164.067032 
	C104.358002,161.068695 103.667053,158.070358 102.100525,154.930862 
	C99.735634,154.956680 97.370743,154.982483 94.531517,154.611221 
	C90.605049,154.753204 91.212250,157.532776 91.126793,160.868988 
	C90.906815,162.834625 90.686836,164.800247 89.865974,166.902283 
	C89.050110,166.868286 88.234245,166.834290 87.257271,165.954971 
	C87.143234,163.644516 87.029190,161.334045 87.368507,158.754593 
	C87.116730,158.084579 86.864952,157.414551 86.260681,156.000900 
	C83.195564,155.465210 80.142487,154.786118 77.054161,154.526672 
	C76.501526,154.480255 75.803101,156.169312 75.086662,157.787674 
	C75.233994,158.501343 75.381317,159.214996 75.280762,160.739868 
	C75.891998,164.482559 76.503235,168.225235 77.032944,172.771500 
	C77.191017,173.827087 77.349098,174.882675 77.247894,176.676620 
	C77.555504,178.099960 77.863113,179.523315 78.068291,181.752869 
	C78.240578,182.810913 78.412872,183.868942 78.308022,185.616791 
	C78.596092,186.727356 78.884163,187.837921 79.079323,189.619904 
	C79.149094,190.063370 79.218857,190.506836 79.093994,191.745163 
	C79.639771,193.563583 80.185547,195.381989 80.783936,197.214355 
	C80.783936,197.214355 80.803864,197.265015 81.066055,197.997269 
	C83.633568,198.267929 86.198189,198.733765 88.769142,198.771774 
	C95.805855,198.875870 96.097282,198.479416 95.909462,190.383209 
	C95.924683,189.918320 95.939903,189.453415 96.416916,188.604279 
	C96.386162,188.043747 96.355408,187.483200 96.585800,186.264603 
	C96.619652,185.794571 96.653496,185.324539 97.466698,184.974731 
	C98.364418,186.642487 99.262146,188.310257 100.119278,190.722610 
	C100.286674,191.443832 100.454079,192.165039 100.397949,193.618073 
	C101.695969,199.121399 111.039024,201.171768 116.552887,196.551819 
	C116.608315,195.687851 116.663742,194.823883 117.064278,193.217560 
	C117.373734,190.144409 117.683182,187.071243 118.137428,183.335678 
	C118.145172,182.660004 118.152916,181.984344 118.591263,180.638809 
	C118.872910,177.739883 119.154556,174.840942 119.711418,171.105148 
	C120.248566,167.427841 120.785713,163.750534 121.972488,159.865616 
	C121.693840,158.227142 121.415192,156.588669 120.415497,154.893387 
	C119.938400,154.936325 119.461296,154.979248 118.118736,154.914719 
	C116.085869,154.935135 114.053001,154.955551 112.092690,154.778656 
	C112.092690,154.778656 112.035309,154.576401 111.780670,154.370667 
M46.185574,153.299652 
	C46.420208,153.539749 46.654846,153.779846 47.369328,154.544739 
	C53.669601,158.197784 59.444019,156.711578 59.603115,151.016418 
	C59.670731,148.596008 57.911110,145.063705 55.897408,143.877090 
	C52.227825,141.714676 48.543301,143.200226 45.692398,147.167297 
	C44.863556,147.102585 44.034718,147.037872 42.756027,146.416016 
	C39.381607,142.803848 35.424641,141.916214 32.281006,144.317200 
	C29.221436,146.654007 28.629917,149.822281 30.306885,153.211044 
	C32.614639,157.874481 38.924305,157.732742 43.683445,152.836823 
	C44.546730,152.817886 45.410015,152.798950 46.063404,152.990631 
	C46.063404,152.990631 46.265545,152.780991 46.185574,153.299652 
M400.678436,151.301773 
	C400.817963,150.229660 400.957489,149.157532 401.577332,147.506973 
	C401.688873,145.999680 401.800415,144.492386 402.001038,142.190094 
	C402.032776,141.124451 402.064545,140.058807 402.553497,138.480362 
	C402.553497,137.137848 402.553497,135.795334 402.553497,134.452820 
	C402.136932,134.430801 401.720398,134.408783 401.303833,134.386765 
	C400.763306,135.837296 400.222748,137.287811 399.405914,139.031296 
	C399.405914,139.031296 399.159790,139.350006 398.589844,139.596436 
	C398.404694,140.397934 398.219543,141.199432 397.645569,142.568924 
	C392.768524,148.384079 387.891449,154.199249 383.000000,160.000000 
	C383.000000,160.000000 383.013306,160.016251 382.305664,160.073166 
	C370.872681,167.382889 358.512146,171.204025 345.051819,167.948776 
	C338.254272,166.304855 331.858185,162.992035 325.292694,160.403030 
	C323.367218,159.643768 320.726044,156.930496 321.087646,162.964050 
	C321.140228,166.667725 321.192780,170.371399 320.704346,174.581512 
	C320.305328,178.367599 319.566650,182.065033 323.951233,184.502853 
	C345.857025,196.682449 380.910492,192.337830 394.825806,167.018814 
	C395.683197,165.293121 396.540558,163.567429 397.750183,161.146454 
	C398.517395,158.459106 399.284637,155.771744 400.373260,152.823196 
	C400.585876,152.576157 400.593567,152.323013 400.678436,151.301773 
M129.018311,76.016212 
	C129.018311,76.016212 129.052795,76.093361 128.432602,76.388092 
	C123.827446,84.526207 122.996346,92.706352 127.993401,101.582581 
	C127.680389,101.876976 127.367386,102.171379 126.141998,102.211830 
	C120.520897,102.186966 114.899582,102.120537 109.278770,102.150314 
	C104.734062,102.174385 102.603706,99.840935 102.515282,95.452171 
	C102.448669,92.146408 102.454826,88.838982 102.448647,85.532249 
	C102.438919,80.328369 102.446053,75.124443 102.446053,68.725273 
	C99.247330,70.613342 97.189529,71.827972 94.409447,73.153694 
	C89.875992,74.630127 87.903755,77.473625 88.515182,82.461258 
	C88.997986,86.399574 88.664558,90.446915 88.581879,94.443520 
	C88.453728,100.637680 86.972572,102.159248 80.882172,102.247345 
	C74.886177,102.334068 68.886681,102.211731 62.892094,102.339439 
	C61.513767,102.368813 59.477226,102.608597 58.897816,103.500969 
	C56.708340,106.873070 54.994030,110.553703 52.889538,114.518959 
	C56.111488,114.770470 58.458485,114.953674 60.805481,115.136887 
	C59.356510,117.356552 57.730114,119.046516 55.853580,119.396927 
	C50.837372,120.333641 45.692459,121.330177 40.637085,121.160309 
	C28.093111,120.738808 21.270590,111.989029 23.444185,99.645203 
	C24.034693,96.291725 25.251417,93.048508 26.317699,89.269218 
	C24.368174,89.599281 22.717283,89.677658 21.205675,90.177361 
	C18.232077,91.160370 14.587464,90.322235 12.775668,94.335320 
	C7.934143,105.059189 10.865600,118.564285 19.987961,126.118958 
	C29.602249,134.081009 41.011742,133.978912 52.325668,132.648239 
	C62.572109,131.443115 71.657356,127.564026 76.263283,117.080940 
	C76.743279,115.988457 78.671730,115.251976 80.067604,114.893715 
	C84.663406,113.714180 89.308395,112.706398 93.969345,111.814865 
	C95.109955,111.596695 96.400940,111.991318 97.592636,112.245552 
	C101.450287,113.068520 105.285568,114.647423 109.144440,114.693954 
	C121.787186,114.846413 134.436493,114.309387 147.083374,114.305519 
	C159.899567,114.301605 172.832504,115.722343 185.489502,114.387512 
	C193.406998,113.552513 200.814117,114.021034 208.622467,114.375069 
	C232.895279,115.475571 257.249268,114.885925 281.570618,114.749542 
	C288.114258,114.712845 293.969879,112.193443 296.670776,105.901680 
	C300.979095,95.865257 300.186920,85.854431 293.416656,77.098160 
	C284.686371,65.806839 267.611633,64.303955 253.337997,73.212318 
	C251.383575,74.610031 249.429153,76.007736 246.278198,78.261139 
	C246.278198,67.785881 246.278198,58.553020 246.278198,48.536926 
	C242.586716,50.403435 240.036667,51.969635 237.288467,53.014778 
	C233.553391,54.435230 232.147842,56.607483 232.235016,60.817837 
	C232.519852,74.573494 232.278214,88.340065 232.102081,102.056786 
	C232.102081,102.056786 232.085587,102.200256 231.138840,102.146797 
	C225.033188,102.151314 218.913910,101.906815 212.826187,102.239380 
	C207.982727,102.503983 204.925537,100.814781 203.785721,95.176590 
	C203.712814,88.470787 203.639908,81.764992 203.867172,74.336945 
	C203.867172,72.870255 203.867172,71.403557 203.867172,69.008194 
	C200.529770,70.775764 198.288513,71.962791 195.548630,73.036919 
	C195.316376,73.262489 195.084106,73.488060 194.189972,73.942719 
	C192.979477,75.322845 191.768997,76.702972 190.330475,78.869949 
	C190.405945,80.224045 190.481430,81.578133 190.223053,83.777466 
	C190.338684,85.874573 190.454315,87.971672 190.342880,90.920990 
	C190.366592,92.984871 190.390289,95.048744 189.936203,97.668602 
	C189.036453,101.180222 186.490372,102.153252 183.204437,102.178169 
	C177.117294,102.224304 171.030899,102.365204 164.357742,102.096527 
	C164.140396,101.704033 163.923050,101.311531 164.184296,100.402733 
	C167.381805,94.226944 168.852051,87.944145 165.405472,81.112617 
	C165.405472,81.112617 165.236069,80.935608 165.240021,80.186165 
	C159.826981,67.228203 142.738693,62.889019 132.534042,72.128548 
	C132.227066,72.298508 132.031906,72.553909 131.315094,73.006432 
	C130.575150,74.021317 129.835220,75.036209 129.018311,76.016212 
M149.905090,48.062164 
	C149.905090,48.062164 149.821518,48.107513 149.409027,47.566113 
	C143.937622,45.859959 140.216156,47.270622 138.906281,51.547264 
	C137.800064,55.159084 139.911255,59.205612 143.465576,60.286045 
	C148.048691,61.679207 151.249283,59.763042 152.704620,54.205891 
	C152.620209,53.509586 152.535782,52.813278 152.651962,51.474472 
	C151.739471,50.368576 150.826981,49.262684 149.905090,48.062164 
M174.536209,179.547180 
	C175.530502,176.315842 176.524780,173.084503 177.792999,169.143936 
	C178.237305,167.431152 178.681610,165.718384 179.320343,163.582047 
	C179.320343,163.582047 179.294708,163.116699 179.573822,162.626526 
	C179.489777,161.718658 179.405731,160.810776 179.417847,159.067108 
	C179.308563,157.013260 180.099442,154.397964 176.630875,154.369278 
	C172.147751,154.332184 167.663437,154.393570 163.181061,154.323044 
	C159.628021,154.267151 158.752045,156.087341 158.844345,159.365784 
	C158.927200,162.309357 159.306305,164.301697 162.907959,163.892517 
	C163.794006,163.791870 164.739578,164.215408 166.026138,164.471222 
	C165.386063,166.828674 164.885040,168.909042 164.255432,170.949722 
	C162.195786,177.625443 159.978149,184.254486 158.032913,190.962860 
	C156.176971,197.363312 157.293152,198.761658 163.723099,198.763229 
	C167.554260,198.764175 171.392517,198.619751 175.214447,198.807846 
	C178.600754,198.974487 180.015167,197.778427 180.002502,194.241348 
	C179.990021,190.761993 179.124939,188.764511 175.214355,189.204407 
	C174.286911,189.308731 173.307297,188.949203 171.687531,188.701462 
	C172.507202,185.607208 173.249786,182.803955 174.536209,179.547180 
M385.928711,106.950455 
	C385.699524,110.260399 385.368408,113.567154 385.264526,116.881027 
	C385.101379,122.087219 388.942535,127.599663 393.160736,128.436798 
	C396.604309,129.120193 399.563354,126.159683 401.065643,119.751503 
	C407.801178,91.019943 384.202759,64.658630 353.899384,70.546684 
	C324.742889,76.211891 312.387238,110.975060 330.458069,134.570465 
	C340.972168,148.298859 361.074188,154.131973 375.673920,147.690918 
	C381.557281,145.095306 382.618530,141.752487 378.318542,136.959824 
	C376.545227,134.983337 373.460571,133.731705 370.759216,133.163208 
	C367.905762,132.562698 364.798798,133.205261 361.801819,133.241440 
	C351.187897,133.369553 344.075775,128.008026 340.280823,118.508369 
	C336.634521,109.380936 338.319153,100.664673 345.008514,93.492233 
	C351.135712,86.922585 359.035400,84.762299 367.822845,86.900620 
	C377.930054,89.360092 383.678528,96.084740 385.928711,106.950455 
M150.610001,177.854095 
	C149.672531,171.615433 148.936737,165.335068 147.660660,159.166458 
	C147.327377,157.555359 145.291550,155.063644 144.074188,155.084732 
	C139.182083,155.169495 134.302460,156.068237 129.429474,156.746765 
	C129.273224,156.768509 129.220703,157.663422 129.150436,158.155655 
	C127.461319,169.988571 125.753754,181.818939 124.110222,193.658188 
	C123.789185,195.970825 123.353836,199.018707 126.963303,198.520081 
	C130.146103,198.080353 134.991989,201.483597 136.240540,195.139618 
	C136.538986,193.623215 137.851227,192.306335 138.697189,190.897690 
	C139.485489,192.257004 140.700043,193.532135 140.987976,194.990265 
	C142.206772,201.162003 146.976700,198.205307 150.202423,198.509933 
	C153.916580,198.860687 153.165375,195.740112 152.885574,193.517456 
	C152.263336,188.574127 151.478699,183.651260 150.610001,177.854095 
M227.886047,192.145737 
	C228.021973,194.324265 225.433105,197.127563 229.316360,198.447708 
	C234.406952,200.178268 238.366547,198.098038 239.977051,193.066422 
	C240.252579,192.205627 241.287277,191.348862 242.166824,191.030594 
	C242.552200,190.891159 244.041885,192.169327 243.990158,192.702957 
	C243.293289,199.891907 248.362885,198.521835 252.529892,198.670609 
	C255.670105,198.782715 257.060425,198.050385 256.365021,194.364090 
	C254.703888,185.558258 253.483231,176.669022 252.102539,167.810684 
	C249.581787,151.637848 253.050034,155.419693 237.132767,154.866531 
	C236.634903,154.849228 235.962067,154.671570 235.667145,154.920197 
	C234.460114,155.937653 232.548920,156.968857 232.362198,158.214584 
	C230.714020,169.211319 229.379730,180.255127 227.886047,192.145737 
M263.314575,182.494843 
	C263.320648,186.320435 263.612000,190.172333 263.262146,193.965088 
	C262.803070,198.941956 265.821045,198.856155 269.219604,198.710556 
	C272.438904,198.572617 276.062836,199.628845 275.864746,194.075897 
	C275.556580,185.437561 275.779999,176.780518 275.760498,168.131439 
	C275.755463,165.884720 275.629608,163.527634 278.921844,163.775040 
	C283.283295,164.102798 282.495087,161.047638 282.635529,158.440308 
	C282.819214,155.028900 280.762054,154.796249 278.146027,154.837631 
	C272.325989,154.929688 266.503357,154.852066 260.681854,154.864746 
	C258.545166,154.869400 256.058014,154.429276 256.279663,157.888199 
	C256.448975,160.530167 255.312027,163.762375 260.007843,163.953156 
	C261.159027,163.999939 263.057251,166.204483 263.170135,167.538956 
	C263.561218,172.162872 263.317139,176.840546 263.314575,182.494843 
M208.807114,198.679825 
	C216.951996,198.726791 216.953751,198.726791 216.965179,190.714691 
	C216.970078,187.290207 216.965988,183.865723 216.965988,180.579605 
	C224.946716,179.421066 225.301620,178.885605 223.268799,172.219833 
	C216.279129,171.241913 216.030640,170.887375 217.749786,164.084686 
	C218.480042,163.986740 219.303268,163.706924 220.081665,163.800385 
	C224.086716,164.281281 225.200119,162.472168 225.201370,158.616867 
	C225.202789,154.269226 222.509705,154.863983 219.871780,154.863800 
	C216.209839,154.863525 212.544342,154.964340 208.887115,154.833344 
	C206.214584,154.737625 204.940231,155.556595 204.965744,158.487991 
	C205.071442,170.638062 204.929779,182.791077 205.145248,194.938278 
	C205.167511,196.193069 206.962067,197.416412 208.807114,198.679825 
M299.068787,197.777008 
	C299.367584,196.031601 299.910126,194.288269 299.924835,192.540466 
	C300.008972,182.555511 299.968292,172.569489 299.968445,162.583832 
	C299.968567,154.667389 299.964966,154.876602 292.229980,154.779587 
	C288.476837,154.732529 287.842133,156.295761 287.896576,159.541107 
	C288.058411,169.191269 287.963074,178.845779 287.963898,188.498581 
	C287.964752,198.481201 287.962494,198.481201 299.068787,197.777008 
M185.776840,160.608414 
	C185.779297,171.735962 185.962631,182.867767 185.701019,193.989105 
	C185.585739,198.889725 188.602234,198.200150 191.573502,198.221634 
	C194.616379,198.243637 197.480865,198.722809 197.360794,193.884186 
	C197.076584,182.431549 197.132126,170.964355 197.352325,159.508835 
	C197.425980,155.677200 196.059647,154.507538 192.435349,154.830124 
	C189.145660,155.122955 184.900604,153.711517 185.776840,160.608414 
M353.417053,59.786697 
	C354.314026,60.744282 355.106415,61.835121 356.126526,62.635902 
	C360.087646,65.745430 365.411102,66.018143 369.034729,63.090366 
	C372.810974,60.039288 374.524200,56.074310 373.088623,51.183395 
	C371.468719,45.664349 368.041626,43.055771 362.585724,43.068611 
	C354.289032,43.088135 350.043396,50.226181 353.417053,59.786697 
M364.048645,118.927879 
	C364.988739,118.611908 366.012299,118.440979 366.855194,117.956062 
	C371.746887,115.141800 373.212708,109.846992 370.477692,105.131981 
	C367.736816,100.406868 362.515503,99.115646 357.586609,101.807983 
	C353.419220,104.084366 352.448975,107.737106 353.174072,111.983513 
	C353.925140,116.381920 357.390778,118.664047 364.048645,118.927879 
M85.715302,47.823521 
	C80.097725,45.927528 75.829491,47.514778 74.923698,51.933453 
	C74.210106,55.414497 75.224388,58.853062 78.636475,59.624157 
	C81.258736,60.216759 85.233002,59.614014 87.047783,57.896420 
	C89.937248,55.161697 89.435043,51.244225 85.715302,47.823521 
M180.147324,124.716560 
	C176.629776,126.440407 175.990845,129.614273 177.171478,132.713516 
	C177.871414,134.550873 180.078384,136.866684 181.780869,137.017899 
	C184.211395,137.233749 187.758606,136.382126 189.055252,134.654938 
	C190.377792,132.893295 190.475937,129.079926 189.458466,126.956139 
	C187.881989,123.665604 184.340347,123.096848 180.147324,124.716560 
M94.081650,59.423439 
	C99.930107,61.391609 103.952568,59.956848 104.831421,55.375187 
	C105.470566,52.043182 104.918655,48.418339 101.242210,47.681271 
	C98.568794,47.145294 94.682167,47.669277 92.791504,49.353786 
	C89.715591,52.094318 90.365028,55.947746 94.081650,59.423439 
M198.135574,137.258057 
	C200.740662,136.331985 204.097946,136.110001 205.776489,134.316666 
	C208.365906,131.550247 206.917389,126.706238 203.846710,124.872101 
	C200.655441,122.965935 195.951553,123.884026 194.089386,126.776505 
	C191.836014,130.276642 193.187759,134.489532 198.135574,137.258057 
M265.683258,55.573860 
	C267.653137,59.014618 270.967865,59.975174 274.159302,58.558319 
	C276.183197,57.659821 278.321838,55.088547 278.692963,52.967228 
	C279.032501,51.026527 277.611115,47.607609 275.981354,46.781059 
	C273.818298,45.684052 269.753876,45.392059 268.232300,46.724705 
	C266.360229,48.364346 266.266266,52.034164 265.683258,55.573860 
z" />
    <path fill="#223170" opacity="1.000000" stroke="none" d="
M127.054375,102.465775 
	C127.367386,102.171379 127.680389,101.876976 128.313675,101.017616 
	C128.066437,95.472763 127.120811,90.496788 127.069183,85.511559 
	C127.036743,82.379341 128.345657,79.233238 129.052795,76.093361 
	C129.052795,76.093361 129.018311,76.016212 129.395050,75.993546 
	C130.497391,74.945511 131.222977,73.920143 131.948563,72.894768 
	C132.031906,72.553909 132.227066,72.298508 133.167786,72.079819 
	C135.313385,71.475632 136.869659,71.017212 138.329605,70.348465 
	C146.021667,66.825012 156.197433,69.689392 160.950272,76.587692 
	C162.087265,78.237915 163.792297,79.496765 165.236069,80.935608 
	C165.236069,80.935608 165.405472,81.112617 165.269989,81.737625 
	C164.658234,88.548096 164.181976,94.733566 163.705719,100.919029 
	C163.923050,101.311531 164.140396,101.704033 164.809860,102.625763 
	C172.314056,103.384850 179.385757,104.010262 186.409195,103.662231 
	C189.492859,103.509422 191.274704,100.658051 190.414001,97.112625 
	C190.390289,95.048744 190.366592,92.984871 190.763855,90.344086 
	C190.975525,87.488861 190.766220,85.210548 190.556900,82.932228 
	C190.481430,81.578133 190.405945,80.224045 190.775940,78.438690 
	C192.431549,76.576157 193.641693,75.144890 194.851837,73.713631 
	C195.084106,73.488060 195.316376,73.262489 196.019150,73.325607 
	C198.848785,74.095924 201.207886,74.577553 203.567001,75.059189 
	C203.639908,81.764992 203.712814,88.470787 203.481262,95.934113 
	C201.991776,102.041801 205.803360,103.506561 209.588043,103.775444 
	C216.181931,104.243881 222.834137,103.973579 229.458237,103.836205 
	C230.344940,103.817825 231.210327,102.770889 232.085587,102.200256 
	C232.085587,102.200256 232.102081,102.056786 232.548370,101.958893 
	C233.314117,100.136536 233.897263,98.414047 233.910263,96.687279 
	C233.994110,85.542358 233.946533,74.396500 233.956207,63.250965 
	C233.961761,56.868484 236.921356,53.643307 245.031845,52.479977 
	C245.031845,61.510918 245.031845,70.309967 245.031845,79.109024 
	C245.829788,79.401939 246.627747,79.694862 247.425690,79.987785 
	C249.630859,77.702133 251.836014,75.416489 254.041183,73.130836 
	C267.611633,64.303955 284.686371,65.806839 293.416656,77.098160 
	C300.186920,85.854431 300.979095,95.865257 296.670776,105.901680 
	C293.969879,112.193443 288.114258,114.712845 281.570618,114.749542 
	C257.249268,114.885925 232.895279,115.475571 208.622467,114.375069 
	C200.814117,114.021034 193.406998,113.552513 185.489502,114.387512 
	C172.832504,115.722343 159.899567,114.301605 147.083374,114.305519 
	C134.436493,114.309387 121.787186,114.846413 109.144440,114.693954 
	C105.285568,114.647423 101.450287,113.068520 97.592636,112.245552 
	C96.400940,111.991318 95.109955,111.596695 93.969345,111.814865 
	C89.308395,112.706398 84.663406,113.714180 80.067604,114.893715 
	C78.671730,115.251976 76.743279,115.988457 76.263283,117.080940 
	C71.657356,127.564026 62.572109,131.443115 52.325668,132.648239 
	C41.011742,133.978912 29.602249,134.081009 19.987961,126.118958 
	C10.865600,118.564285 7.934143,105.059189 12.775668,94.335320 
	C14.587464,90.322235 18.232077,91.160370 21.205675,90.177361 
	C22.717283,89.677658 24.368174,89.599281 26.317699,89.269218 
	C25.251417,93.048508 24.034693,96.291725 23.444185,99.645203 
	C21.270590,111.989029 28.093111,120.738808 40.637085,121.160309 
	C45.692459,121.330177 50.837372,120.333641 55.853580,119.396927 
	C57.730114,119.046516 59.356510,117.356552 60.805481,115.136887 
	C58.458485,114.953674 56.111488,114.770470 52.889538,114.518959 
	C54.994030,110.553703 56.708340,106.873070 58.897816,103.500969 
	C59.477226,102.608597 61.513767,102.368813 62.892094,102.339439 
	C68.886681,102.211731 74.886177,102.334068 80.882172,102.247345 
	C86.972572,102.159248 88.453728,100.637680 88.581879,94.443520 
	C88.664558,90.446915 88.997986,86.399574 88.515182,82.461258 
	C87.903755,77.473625 89.875992,74.630127 95.149017,73.112213 
	C97.125351,72.874199 98.362106,72.677673 101.024284,72.254631 
	C101.024284,80.172424 100.974136,87.557281 101.040115,94.941093 
	C101.093170,100.878937 103.978775,103.801781 109.835327,103.902763 
	C114.304138,103.979828 118.779396,104.027046 123.242844,103.855247 
	C124.529274,103.805740 125.784721,102.951225 127.054375,102.465775 
M284.280609,101.190353 
	C289.031891,88.083519 281.957672,78.262848 268.975922,79.943878 
	C260.771393,81.006294 248.708862,92.313118 247.102402,100.567863 
	C246.986954,101.161064 247.686462,101.912865 248.326401,103.268509 
	C259.635620,103.483772 270.944580,103.728722 282.254791,103.825485 
	C282.812805,103.830261 283.381897,102.542793 284.280609,101.190353 
M138.226852,91.835556 
	C139.927460,95.962372 141.501633,100.796021 146.908051,100.508804 
	C150.800095,100.302048 154.309692,93.087021 153.962219,87.878372 
	C153.918213,87.218681 153.844833,86.551277 153.690598,85.910164 
	C152.434158,80.687187 147.238358,77.936897 142.487488,80.307617 
	C138.091080,82.501442 137.639511,86.662674 138.226852,91.835556 
z" />
    <path fill="#5996F6" opacity="1.000000" stroke="none" d="
M385.871582,106.527328 
	C383.678528,96.084740 377.930054,89.360092 367.822845,86.900620 
	C359.035400,84.762299 351.135712,86.922585 345.008514,93.492233 
	C338.319153,100.664673 336.634521,109.380936 340.280823,118.508369 
	C344.075775,128.008026 351.187897,133.369553 361.801819,133.241440 
	C364.798798,133.205261 367.905762,132.562698 370.759216,133.163208 
	C373.460571,133.731705 376.545227,134.983337 378.318542,136.959824 
	C382.618530,141.752487 381.557281,145.095306 375.673920,147.690918 
	C361.074188,154.131973 340.972168,148.298859 330.458069,134.570465 
	C312.387238,110.975060 324.742889,76.211891 353.899384,70.546684 
	C384.202759,64.658630 407.801178,91.019943 401.065643,119.751503 
	C399.563354,126.159683 396.604309,129.120193 393.160736,128.436798 
	C388.942535,127.599663 385.101379,122.087219 385.264526,116.881027 
	C385.368408,113.567154 385.699524,110.260399 385.871582,106.527328 
z" />
    <path fill="#5093FB" opacity="1.000000" stroke="none" d="
M321.245361,174.075073 
	C321.192780,170.371399 321.140228,166.667725 321.535828,162.511658 
	C327.030548,164.103348 331.996918,166.381012 337.138977,168.147110 
	C351.717560,173.154221 365.838287,172.526749 379.057220,163.913940 
	C380.577179,162.923599 381.704132,161.330093 383.013306,160.016235 
	C383.013306,160.016251 383.000000,160.000000 383.380066,160.013702 
	C391.367279,157.886444 394.105682,151.035080 398.067993,145.341156 
	C398.494476,144.728317 399.532166,144.540817 400.239502,144.507736 
	C400.209106,145.573349 400.225555,146.287262 399.921875,147.222198 
	C398.400452,152.299805 397.199219,157.156372 395.751129,162.222015 
	C395.011993,163.625015 394.519684,164.818939 393.673218,166.055435 
	C391.790985,168.139328 390.462433,170.374191 388.701721,172.189972 
	C378.715546,182.488510 366.935211,189.289597 352.187378,188.882355 
	C346.506592,188.725510 340.893250,186.853668 335.203430,186.115753 
	C327.795349,185.154968 322.465271,182.072281 321.245361,174.075073 
z" />
    <path fill="#5895F6" opacity="1.000000" stroke="none" d="
M75.528648,159.928665 
	C75.381317,159.214996 75.233994,158.501343 75.491829,157.358276 
	C79.278969,157.574524 82.660942,158.220139 86.256340,158.930786 
	C86.469772,158.995819 86.915146,159.023590 86.915146,159.023590 
	C87.029190,161.334045 87.143234,163.644516 87.199707,166.828796 
	C87.427818,171.757935 87.713501,175.813263 87.999191,179.868591 
	C88.514053,179.866928 89.028915,179.865280 89.543777,179.863632 
	C89.851471,175.497711 90.159164,171.131805 90.466850,166.765884 
	C90.686836,164.800247 90.906815,162.834625 91.552902,160.360245 
	C92.987953,158.237091 93.996902,156.622696 95.005844,155.008301 
	C97.370743,154.982483 99.735634,154.956680 102.566879,155.315765 
	C103.017708,157.134842 103.002182,158.569016 102.594429,160.092270 
	C100.018387,165.119415 100.520409,169.864975 103.640160,174.428818 
	C103.433090,172.275528 103.226021,170.122253 103.320038,167.979279 
	C104.022377,168.007324 104.423645,168.025055 104.873909,168.363251 
	C104.952133,169.114929 104.981354,169.546127 104.997101,170.428513 
	C105.404938,175.008041 105.826233,179.136398 106.247520,183.264740 
	C106.862694,183.214462 107.477867,183.164185 108.093040,183.113892 
	C108.768089,175.448257 109.443138,167.782623 110.404221,160.029861 
	C111.133545,158.287140 111.576836,156.631561 112.020126,154.975967 
	C114.053001,154.955551 116.085869,154.935135 118.600426,155.285980 
	C119.725449,156.109924 120.368790,156.562607 121.036072,157.400635 
	C121.147629,158.548386 121.235245,159.310806 121.322861,160.073227 
	C120.785713,163.750534 120.248566,167.427841 119.249298,171.686325 
	C118.578339,175.281219 118.369499,178.294952 118.160660,181.308670 
	C118.152916,181.984344 118.145172,182.660004 117.730888,183.856308 
	C117.122627,187.571259 116.920898,190.765594 116.719177,193.959915 
	C116.663742,194.823883 116.608315,195.687851 115.881226,196.787811 
	C109.988342,196.908707 104.333038,198.324097 100.621483,192.886261 
	C100.454079,192.165039 100.286674,191.443832 100.387054,190.074158 
	C100.071709,185.388428 99.488586,181.351120 98.905472,177.313828 
	C98.166100,177.344040 97.426720,177.374252 96.687340,177.404465 
	C96.687340,179.887802 96.687340,182.371155 96.687340,184.854507 
	C96.653496,185.324539 96.619652,185.794571 96.234161,186.682648 
	C95.906723,187.729980 95.930923,188.359253 95.955124,188.988525 
	C95.939903,189.453415 95.924683,189.918320 95.575775,190.980225 
	C94.735451,195.865570 92.498749,197.667557 88.073021,197.081604 
	C85.699669,196.767395 83.230042,197.180252 80.803864,197.265015 
	C80.803864,197.265015 80.783936,197.214355 80.849152,196.793488 
	C80.372444,194.565186 79.830536,192.757736 79.288628,190.950302 
	C79.218857,190.506836 79.149094,190.063370 79.356903,189.070221 
	C79.284706,187.322678 78.934929,186.124832 78.585159,184.926987 
	C78.412872,183.868942 78.240578,182.810913 78.360062,181.114456 
	C78.270271,178.963455 77.888725,177.450851 77.507179,175.938263 
	C77.349098,174.882675 77.191017,173.827087 77.340286,172.082367 
	C76.941307,167.571701 76.234978,163.750183 75.528648,159.928665 
z" />
    <path fill="#5B97F4" opacity="1.000000" stroke="none" d="
M150.685120,178.287079 
	C151.478699,183.651260 152.263336,188.574127 152.885574,193.517456 
	C153.165375,195.740112 153.916580,198.860687 150.202423,198.509933 
	C146.976700,198.205307 142.206772,201.162003 140.987976,194.990265 
	C140.700043,193.532135 139.485489,192.257004 138.697189,190.897690 
	C137.851227,192.306335 136.538986,193.623215 136.240540,195.139618 
	C134.991989,201.483597 130.146103,198.080353 126.963303,198.520081 
	C123.353836,199.018707 123.789185,195.970825 124.110222,193.658188 
	C125.753754,181.818939 127.461319,169.988571 129.150436,158.155655 
	C129.220703,157.663422 129.273224,156.768509 129.429474,156.746765 
	C134.302460,156.068237 139.182083,155.169495 144.074188,155.084732 
	C145.291550,155.063644 147.327377,157.555359 147.660660,159.166458 
	C148.936737,165.335068 149.672531,171.615433 150.685120,178.287079 
M137.024734,173.128174 
	C136.763626,175.406708 136.215485,177.705200 136.371765,179.954742 
	C136.441879,180.964096 137.921783,181.875519 138.761948,182.831375 
	C139.396164,181.870163 140.652557,180.835266 140.549088,179.961441 
	C140.226059,177.234039 139.388855,174.567551 138.750977,171.877441 
	C138.258514,172.048920 137.766037,172.220398 137.024734,173.128174 
z" />
    <path fill="#5A96F5" opacity="1.000000" stroke="none" d="
M227.919342,191.715363 
	C229.379730,180.255127 230.714020,169.211319 232.362198,158.214584 
	C232.548920,156.968857 234.460114,155.937653 235.667145,154.920197 
	C235.962067,154.671570 236.634903,154.849228 237.132767,154.866531 
	C253.050034,155.419693 249.581787,151.637848 252.102539,167.810684 
	C253.483231,176.669022 254.703888,185.558258 256.365021,194.364090 
	C257.060425,198.050385 255.670105,198.782715 252.529892,198.670609 
	C248.362885,198.521835 243.293289,199.891907 243.990158,192.702957 
	C244.041885,192.169327 242.552200,190.891159 242.166824,191.030594 
	C241.287277,191.348862 240.252579,192.205627 239.977051,193.066422 
	C238.366547,198.098038 234.406952,200.178268 229.316360,198.447708 
	C225.433105,197.127563 228.021973,194.324265 227.919342,191.715363 
M240.142929,181.917343 
	C242.447678,183.757599 243.992020,183.166962 243.813950,180.268936 
	C243.631058,177.292267 242.776428,174.356888 242.215775,171.403427 
	C241.599899,171.444305 240.984024,171.485184 240.368149,171.526047 
	C240.223022,174.710297 240.077896,177.894547 240.142929,181.917343 
z" />
    <path fill="#5D97F5" opacity="1.000000" stroke="none" d="
M263.314636,181.996307 
	C263.317139,176.840546 263.561218,172.162872 263.170135,167.538956 
	C263.057251,166.204483 261.159027,163.999939 260.007843,163.953156 
	C255.312027,163.762375 256.448975,160.530167 256.279663,157.888199 
	C256.058014,154.429276 258.545166,154.869400 260.681854,154.864746 
	C266.503357,154.852066 272.325989,154.929688 278.146027,154.837631 
	C280.762054,154.796249 282.819214,155.028900 282.635529,158.440308 
	C282.495087,161.047638 283.283295,164.102798 278.921844,163.775040 
	C275.629608,163.527634 275.755463,165.884720 275.760498,168.131439 
	C275.779999,176.780518 275.556580,185.437561 275.864746,194.075897 
	C276.062836,199.628845 272.438904,198.572617 269.219604,198.710556 
	C265.821045,198.856155 262.803070,198.941956 263.262146,193.965088 
	C263.612000,190.172333 263.320648,186.320435 263.314636,181.996307 
z" />
    <path fill="#5C97F5" opacity="1.000000" stroke="none" d="
M208.370697,198.667084 
	C206.962067,197.416412 205.167511,196.193069 205.145248,194.938278 
	C204.929779,182.791077 205.071442,170.638062 204.965744,158.487991 
	C204.940231,155.556595 206.214584,154.737625 208.887115,154.833344 
	C212.544342,154.964340 216.209839,154.863525 219.871780,154.863800 
	C222.509705,154.863983 225.202789,154.269226 225.201370,158.616867 
	C225.200119,162.472168 224.086716,164.281281 220.081665,163.800385 
	C219.303268,163.706924 218.480042,163.986740 217.749786,164.084686 
	C216.030640,170.887375 216.279129,171.241913 223.268799,172.219833 
	C225.301620,178.885605 224.946716,179.421066 216.965988,180.579605 
	C216.965988,183.865723 216.970078,187.290207 216.965179,190.714691 
	C216.953751,198.726791 216.951996,198.726791 208.370697,198.667084 
z" />
    <path fill="#5A95F4" opacity="1.000000" stroke="none" d="
M298.630432,197.935654 
	C287.962494,198.481201 287.964752,198.481201 287.963898,188.498581 
	C287.963074,178.845779 288.058411,169.191269 287.896576,159.541107 
	C287.842133,156.295761 288.476837,154.732529 292.229980,154.779587 
	C299.964966,154.876602 299.968567,154.667389 299.968445,162.583832 
	C299.968292,172.569489 300.008972,182.555511 299.924835,192.540466 
	C299.910126,194.288269 299.367584,196.031601 298.630432,197.935654 
z" />
    <path fill="#5894F5" opacity="1.000000" stroke="none" d="
M185.779419,160.122589 
	C184.900604,153.711517 189.145660,155.122955 192.435349,154.830124 
	C196.059647,154.507538 197.425980,155.677200 197.352325,159.508835 
	C197.132126,170.964355 197.076584,182.431549 197.360794,193.884186 
	C197.480865,198.722809 194.616379,198.243637 191.573502,198.221634 
	C188.602234,198.200150 185.585739,198.889725 185.701019,193.989105 
	C185.962631,182.867767 185.779297,171.735962 185.779419,160.122589 
z" />
    <path fill="#5092FA" opacity="1.000000" stroke="none" d="
M179.321686,159.902908 
	C179.405731,160.810776 179.489777,161.718658 179.221924,162.894974 
	C178.769714,163.260361 178.669388,163.357300 178.569061,163.454239 
	C178.754684,163.638031 178.940292,163.821808 179.125916,164.005600 
	C178.681610,165.718384 178.237305,167.431152 177.358124,169.627350 
	C175.604019,173.398941 174.284805,176.687088 172.604797,180.064041 
	C171.027008,182.834473 169.810028,185.516113 168.042831,189.410156 
	C170.395157,189.949310 172.800323,190.251556 174.992325,191.102722 
	C176.178604,191.563385 177.535843,192.835922 177.802582,193.978729 
	C177.984833,194.759552 176.461136,196.775223 175.623978,196.820175 
	C170.558868,197.092163 165.471802,196.955597 159.613327,196.955597 
	C160.109985,193.040604 160.107407,189.871490 160.963196,186.954193 
	C162.977158,180.088745 165.454590,173.360687 167.634888,166.542007 
	C168.644409,163.384766 167.111877,161.835739 163.986786,161.645172 
	C162.927811,161.580597 161.861588,161.634949 160.488205,161.634949 
	C160.970993,157.856720 161.178925,155.404144 165.923431,156.610352 
	C169.549469,157.532196 173.597626,156.793579 177.364365,156.793579 
	C177.996841,157.798309 178.659256,158.850601 179.321686,159.902908 
z" />
    <path fill="#5C97F4" opacity="1.000000" stroke="none" d="
M353.240082,59.432709 
	C350.043396,50.226181 354.289032,43.088135 362.585724,43.068611 
	C368.041626,43.055771 371.468719,45.664349 373.088623,51.183395 
	C374.524200,56.074310 372.810974,60.039288 369.034729,63.090366 
	C365.411102,66.018143 360.087646,65.745430 356.126526,62.635902 
	C355.106415,61.835121 354.314026,60.744282 353.240082,59.432709 
z" />
    <path fill="#5E99F0" opacity="1.000000" stroke="none" d="
M363.641541,118.961548 
	C357.390778,118.664047 353.925140,116.381920 353.174072,111.983513 
	C352.448975,107.737106 353.419220,104.084366 357.586609,101.807983 
	C362.515503,99.115646 367.736816,100.406868 370.477692,105.131981 
	C373.212708,109.846992 371.746887,115.141800 366.855194,117.956062 
	C366.012299,118.440979 364.988739,118.611908 363.641541,118.961548 
z" />
    <path fill="#72A0EB" opacity="1.000000" stroke="none" d="
M179.369751,159.485016 
	C178.659256,158.850601 177.996841,157.798309 177.364365,156.793579 
	C173.597626,156.793579 169.549469,157.532196 165.923431,156.610352 
	C161.178925,155.404144 160.970993,157.856720 160.488205,161.634949 
	C161.861588,161.634949 162.927811,161.580597 163.986786,161.645172 
	C167.111877,161.835739 168.644409,163.384766 167.634888,166.542007 
	C165.454590,173.360687 162.977158,180.088745 160.963196,186.954193 
	C160.107407,189.871490 160.109985,193.040604 159.613327,196.955597 
	C165.471802,196.955597 170.558868,197.092163 175.623978,196.820175 
	C176.461136,196.775223 177.984833,194.759552 177.802582,193.978729 
	C177.535843,192.835922 176.178604,191.563385 174.992325,191.102722 
	C172.800323,190.251556 170.395157,189.949310 168.042831,189.410156 
	C169.810028,185.516113 171.027008,182.834473 172.861481,180.077072 
	C173.650101,180.001099 173.821243,180.000885 173.992371,180.000687 
	C173.249786,182.803955 172.507202,185.607208 171.687531,188.701462 
	C173.307297,188.949203 174.286911,189.308731 175.214355,189.204407 
	C179.124939,188.764511 179.990021,190.761993 180.002502,194.241348 
	C180.015167,197.778427 178.600754,198.974487 175.214447,198.807846 
	C171.392517,198.619751 167.554260,198.764175 163.723099,198.763229 
	C157.293152,198.761658 156.176971,197.363312 158.032913,190.962860 
	C159.978149,184.254486 162.195786,177.625443 164.255432,170.949722 
	C164.885040,168.909042 165.386063,166.828674 166.026138,164.471222 
	C164.739578,164.215408 163.794006,163.791870 162.907959,163.892517 
	C159.306305,164.301697 158.927200,162.309357 158.844345,159.365784 
	C158.752045,156.087341 159.628021,154.267151 163.181061,154.323044 
	C167.663437,154.393570 172.147751,154.332184 176.630875,154.369278 
	C180.099442,154.397964 179.308563,157.013260 179.369751,159.485016 
z" />
    <path fill="#444E7C" opacity="1.000000" stroke="none" d="
M253.689590,73.171577 
	C251.836014,75.416489 249.630859,77.702133 247.425690,79.987785 
	C246.627747,79.694862 245.829788,79.401939 245.031845,79.109024 
	C245.031845,70.309967 245.031845,61.510918 245.031845,52.479977 
	C236.921356,53.643307 233.961761,56.868484 233.956207,63.250965 
	C233.946533,74.396500 233.994110,85.542358 233.910263,96.687279 
	C233.897263,98.414047 233.314117,100.136536 232.616867,101.981720 
	C232.278214,88.340065 232.519852,74.573494 232.235016,60.817837 
	C232.147842,56.607483 233.553391,54.435230 237.288467,53.014778 
	C240.036667,51.969635 242.586716,50.403435 246.278198,48.536926 
	C246.278198,58.553020 246.278198,67.785881 246.278198,78.261139 
	C249.429153,76.007736 251.383575,74.610031 253.689590,73.171577 
z" />
    <path fill="#70A0EA" opacity="1.000000" stroke="none" d="
M320.974854,174.328293 
	C322.465271,182.072281 327.795349,185.154968 335.203430,186.115753 
	C340.893250,186.853668 346.506592,188.725510 352.187378,188.882355 
	C366.935211,189.289597 378.715546,182.488510 388.701721,172.189972 
	C390.462433,170.374191 391.790985,168.139328 393.711426,166.391174 
	C394.155548,166.903687 394.207367,167.123016 394.259186,167.342361 
	C380.910492,192.337830 345.857025,196.682449 323.951233,184.502853 
	C319.566650,182.065033 320.305328,178.367599 320.974854,174.328293 
z" />
    <path fill="#2A3771" opacity="1.000000" stroke="none" d="
M86.037170,48.004745 
	C89.435043,51.244225 89.937248,55.161697 87.047783,57.896420 
	C85.233002,59.614014 81.258736,60.216759 78.636475,59.624157 
	C75.224388,58.853062 74.210106,55.414497 74.923698,51.933453 
	C75.829491,47.514778 80.097725,45.927528 86.037170,48.004745 
z" />
    <path fill="#2C3972" opacity="1.000000" stroke="none" d="
M180.471802,124.565979 
	C184.340347,123.096848 187.881989,123.665604 189.458466,126.956139 
	C190.475937,129.079926 190.377792,132.893295 189.055252,134.654938 
	C187.758606,136.382126 184.211395,137.233749 181.780869,137.017899 
	C180.078384,136.866684 177.871414,134.550873 177.171478,132.713516 
	C175.990845,129.614273 176.629776,126.440407 180.471802,124.565979 
z" />
    <path fill="#2C3871" opacity="1.000000" stroke="none" d="
M93.775070,59.200882 
	C90.365028,55.947746 89.715591,52.094318 92.791504,49.353786 
	C94.682167,47.669277 98.568794,47.145294 101.242210,47.681271 
	C104.918655,48.418339 105.470566,52.043182 104.831421,55.375187 
	C103.952568,59.956848 99.930107,61.391609 93.775070,59.200882 
z" />
    <path fill="#2D3972" opacity="1.000000" stroke="none" d="
M197.766296,137.171661 
	C193.187759,134.489532 191.836014,130.276642 194.089386,126.776505 
	C195.951553,123.884026 200.655441,122.965935 203.846710,124.872101 
	C206.917389,126.706238 208.365906,131.550247 205.776489,134.316666 
	C204.097946,136.110001 200.740662,136.331985 197.766296,137.171661 
z" />
    <path fill="#2C3872" opacity="1.000000" stroke="none" d="
M265.543518,55.200180 
	C266.266266,52.034164 266.360229,48.364346 268.232300,46.724705 
	C269.753876,45.392059 273.818298,45.684052 275.981354,46.781059 
	C277.611115,47.607609 279.032501,51.026527 278.692963,52.967228 
	C278.321838,55.088547 276.183197,57.659821 274.159302,58.558319 
	C270.967865,59.975174 267.653137,59.014618 265.543518,55.200180 
z" />
    <path fill="#2B3872" opacity="1.000000" stroke="none" d="
M46.228424,147.070740 
	C48.543301,143.200226 52.227825,141.714676 55.897408,143.877090 
	C57.911110,145.063705 59.670731,148.596008 59.603115,151.016418 
	C59.444019,156.711578 53.669601,158.197784 47.141586,154.027435 
	C46.697746,153.267090 46.481644,153.024048 46.265541,152.780991 
	C46.265545,152.780991 46.063404,152.990631 46.176849,152.477325 
	C46.269672,150.332916 46.249046,148.701828 46.228424,147.070740 
z" />
    <path fill="#2B3872" opacity="1.000000" stroke="none" d="
M43.164066,153.022964 
	C38.924305,157.732742 32.614639,157.874481 30.306885,153.211044 
	C28.629917,149.822281 29.221436,146.654007 32.281006,144.317200 
	C35.424641,141.916214 39.381607,142.803848 42.944107,147.126236 
	C43.142818,149.565292 43.153442,151.294128 43.164066,153.022964 
z" />
    <path fill="#70A0EA" opacity="1.000000" stroke="none" d="
M382.659485,160.044708 
	C381.704132,161.330093 380.577179,162.923599 379.057220,163.913940 
	C365.838287,172.526749 351.717560,173.154221 337.138977,168.147110 
	C331.996918,166.381012 327.030548,164.103348 321.622131,162.060913 
	C320.726044,156.930496 323.367218,159.643768 325.292694,160.403030 
	C331.858185,162.992035 338.254272,166.304855 345.051819,167.948776 
	C358.512146,171.204025 370.872681,167.382889 382.659485,160.044708 
z" />
    <path fill="#444E7C" opacity="1.000000" stroke="none" d="
M126.598190,102.338806 
	C125.784721,102.951225 124.529274,103.805740 123.242844,103.855247 
	C118.779396,104.027046 114.304138,103.979828 109.835327,103.902763 
	C103.978775,103.801781 101.093170,100.878937 101.040115,94.941093 
	C100.974136,87.557281 101.024284,80.172424 101.024284,72.254631 
	C98.362106,72.677673 97.125351,72.874199 95.510162,73.056656 
	C97.189529,71.827972 99.247330,70.613342 102.446053,68.725273 
	C102.446053,75.124443 102.438919,80.328369 102.448647,85.532249 
	C102.454826,88.838982 102.448669,92.146408 102.515282,95.452171 
	C102.603706,99.840935 104.734062,102.174385 109.278770,102.150314 
	C114.899582,102.120537 120.520897,102.186966 126.598190,102.338806 
z" />
    <path fill="#19296C" opacity="1.000000" stroke="none" d="
M152.451370,52.116974 
	C152.535782,52.813278 152.620209,53.509586 152.291290,54.663048 
	C151.163376,56.013454 150.528564,57.578846 149.719315,57.674915 
	C147.212158,57.972569 144.099670,58.600571 142.216690,57.459358 
	C139.364120,55.730518 139.884155,52.139320 142.288254,50.330425 
	C144.247604,48.856159 147.270309,48.795170 149.821518,48.107513 
	C149.821518,48.107513 149.905090,48.062164 149.942780,48.421616 
	C150.804108,49.893040 151.627731,51.005009 152.451370,52.116974 
z" />
    <path fill="#444E7C" opacity="1.000000" stroke="none" d="
M165.238037,80.560883 
	C163.792297,79.496765 162.087265,78.237915 160.950272,76.587692 
	C156.197433,69.689392 146.021667,66.825012 138.329605,70.348465 
	C136.869659,71.017212 135.313385,71.475632 133.406387,72.016747 
	C142.738693,62.889019 159.826981,67.228203 165.238037,80.560883 
z" />
    <path fill="#4D567D" opacity="1.000000" stroke="none" d="
M149.615265,47.836815 
	C147.270309,48.795170 144.247604,48.856159 142.288254,50.330425 
	C139.884155,52.139320 139.364120,55.730518 142.216690,57.459358 
	C144.099670,58.600571 147.212158,57.972569 149.719315,57.674915 
	C150.528564,57.578846 151.163376,56.013454 152.183090,55.002251 
	C151.249283,59.763042 148.048691,61.679207 143.465576,60.286045 
	C139.911255,59.205612 137.800064,55.159084 138.906281,51.547264 
	C140.216156,47.270622 143.937622,45.859959 149.615265,47.836815 
z" />
    <path fill="#444E7C" opacity="1.000000" stroke="none" d="
M231.612213,102.173523 
	C231.210327,102.770889 230.344940,103.817825 229.458237,103.836205 
	C222.834137,103.973579 216.181931,104.243881 209.588043,103.775444 
	C205.803360,103.506561 201.991776,102.041801 203.400757,96.403152 
	C204.925537,100.814781 207.982727,102.503983 212.826187,102.239380 
	C218.913910,101.906815 225.033188,102.151314 231.612213,102.173523 
z" />
    <path fill="#70A0EA" opacity="1.000000" stroke="none" d="
M400.286346,144.156021 
	C399.532166,144.540817 398.494476,144.728317 398.067993,145.341156 
	C394.105682,151.035080 391.367279,157.886444 383.387268,160.020905 
	C387.891449,154.199249 392.768524,148.384079 398.089874,142.109009 
	C398.742706,140.882736 398.951263,140.116364 399.159790,139.350006 
	C399.159790,139.350006 399.405914,139.031296 399.946075,138.944168 
	C401.022919,138.902420 401.559631,138.947784 402.096313,138.993164 
	C402.064545,140.058807 402.032776,141.124451 401.731934,142.702911 
	C401.070679,143.529144 400.678497,143.842575 400.286346,144.156021 
z" />
    <path fill="#444E7C" opacity="1.000000" stroke="none" d="
M190.175110,97.390610 
	C191.274704,100.658051 189.492859,103.509422 186.409195,103.662231 
	C179.385757,104.010262 172.314056,103.384850 165.103088,102.810822 
	C171.030899,102.365204 177.117294,102.224304 183.204437,102.178169 
	C186.490372,102.153252 189.036453,101.180222 190.175110,97.390610 
z" />
    <path fill="#77A3EE" opacity="1.000000" stroke="none" d="
M110.118195,160.116989 
	C109.443138,167.782623 108.768089,175.448257 108.093040,183.113892 
	C107.477867,183.164185 106.862694,183.214462 106.247520,183.264740 
	C105.826233,179.136398 105.404938,175.008041 105.397148,170.462646 
	C106.588409,168.407211 107.366158,166.768814 108.143906,165.130432 
	C108.143906,165.130432 108.117828,165.109238 108.347961,164.853760 
	C108.649864,163.731293 108.721634,162.864319 108.793396,161.997345 
	C108.860054,161.557144 108.926720,161.116959 109.212021,160.320496 
	C109.430672,159.964233 109.835762,159.849472 109.906693,159.916016 
	C109.977623,159.982544 110.118195,160.116989 110.118195,160.116989 
z" />
    <path fill="#444E7C" opacity="1.000000" stroke="none" d="
M128.742706,76.240723 
	C128.345657,79.233238 127.036743,82.379341 127.069183,85.511559 
	C127.120811,90.496788 128.066437,95.472763 128.396515,100.702942 
	C122.996346,92.706352 123.827446,84.526207 128.742706,76.240723 
z" />
    <path fill="#444E7C" opacity="1.000000" stroke="none" d="
M163.945007,100.660881 
	C164.181976,94.733566 164.658234,88.548096 165.249481,81.858398 
	C168.852051,87.944145 167.381805,94.226944 163.945007,100.660881 
z" />
    <path fill="#77A3EE" opacity="1.000000" stroke="none" d="
M100.509720,193.252167 
	C104.333038,198.324097 109.988342,196.908707 115.687721,197.051086 
	C111.039024,201.171768 101.695969,199.121399 100.509720,193.252167 
z" />
    <path fill="#BCD7F8" opacity="1.000000" stroke="none" d="
M90.166412,166.834076 
	C90.159164,171.131805 89.851471,175.497711 89.543777,179.863632 
	C89.028915,179.865280 88.514053,179.866928 87.999191,179.868591 
	C87.713501,175.813263 87.427818,171.757935 87.280258,167.251450 
	C88.234245,166.834290 89.050110,166.868286 90.166412,166.834076 
z" />
    <path fill="#77A3EE" opacity="1.000000" stroke="none" d="
M80.934959,197.631134 
	C83.230042,197.180252 85.699669,196.767395 88.073021,197.081604 
	C92.498749,197.667557 94.735451,195.865570 95.469727,191.313873 
	C96.097282,198.479416 95.805855,198.875870 88.769142,198.771774 
	C86.198189,198.733765 83.633568,198.267929 80.934959,197.631134 
z" />
    <path fill="#77A3EE" opacity="1.000000" stroke="none" d="
M97.077019,184.914612 
	C96.687340,182.371155 96.687340,179.887802 96.687340,177.404465 
	C97.426720,177.374252 98.166100,177.344040 98.905472,177.313828 
	C99.488586,181.351120 100.071709,185.388428 100.407349,189.701874 
	C99.262146,188.310257 98.364418,186.642487 97.077019,184.914612 
z" />
    <path fill="#70A0EA" opacity="1.000000" stroke="none" d="
M395.997986,162.012955 
	C397.199219,157.156372 398.400452,152.299805 400.103424,147.364594 
	C400.790314,147.539413 400.954254,147.805908 401.096985,148.085419 
	C400.957489,149.157532 400.817963,150.229660 400.430054,151.829575 
	C400.059296,152.585495 400.016022,152.827835 400.051880,153.084381 
	C399.284637,155.771744 398.517395,158.459106 397.345032,161.532501 
	C396.627991,161.970734 396.314026,162.002213 395.997986,162.012955 
z" />
    <path fill="#444E7C" opacity="1.000000" stroke="none" d="
M203.717087,74.698067 
	C201.207886,74.577553 198.848785,74.095924 196.268463,73.382065 
	C198.288513,71.962791 200.529770,70.775764 203.867172,69.008194 
	C203.867172,71.403557 203.867172,72.870255 203.717087,74.698067 
z" />
    <path fill="#77A3EE" opacity="1.000000" stroke="none" d="
M86.042908,158.865753 
	C82.660942,158.220139 79.278969,157.574524 75.534500,156.992981 
	C75.803101,156.169312 76.501526,154.480255 77.054161,154.526672 
	C80.142487,154.786118 83.195564,155.465210 86.269615,156.706070 
	C86.200005,157.896088 86.121460,158.380920 86.042908,158.865753 
z" />
    <path fill="#77A3EE" opacity="1.000000" stroke="none" d="
M102.986656,160.003189 
	C103.002182,158.569016 103.017708,157.134842 103.004669,155.386353 
	C103.667053,158.070358 104.358002,161.068695 105.027603,164.894196 
	C104.945808,166.495163 104.885353,167.268982 104.824905,168.042786 
	C104.423645,168.025055 104.022377,168.007324 103.318222,167.538666 
	C103.005775,164.726227 102.996216,162.364700 102.986656,160.003189 
z" />
    <path fill="#77A3EE" opacity="1.000000" stroke="none" d="
M75.404709,160.334259 
	C76.234978,163.750183 76.941307,167.571701 77.381050,171.680573 
	C76.503235,168.225235 75.891998,164.482559 75.404709,160.334259 
z" />
    <path fill="#89AFEA" opacity="1.000000" stroke="none" d="
M174.264282,179.773926 
	C173.821243,180.000885 173.650101,180.001099 173.222275,179.988281 
	C174.284805,176.687088 175.604019,173.398941 177.221146,169.981964 
	C176.524780,173.084503 175.530502,176.315842 174.264282,179.773926 
z" />
    <path fill="#77A3EE" opacity="1.000000" stroke="none" d="
M116.891724,193.588745 
	C116.920898,190.765594 117.122627,187.571259 117.658493,184.187515 
	C117.683182,187.071243 117.373734,190.144409 116.891724,193.588745 
z" />
    <path fill="#CED5E2" opacity="1.000000" stroke="none" d="
M43.423756,152.929901 
	C43.153442,151.294128 43.142818,149.565292 43.169033,147.404816 
	C44.034718,147.037872 44.863556,147.102585 45.960411,147.119019 
	C46.249046,148.701828 46.269672,150.332916 46.281799,152.372009 
	C45.410015,152.798950 44.546730,152.817886 43.423756,152.929901 
z" />
    <path fill="#D7EBF7" opacity="1.000000" stroke="none" d="
M104.873909,168.363266 
	C104.885353,167.268982 104.945808,166.495163 105.069244,165.337616 
	C105.884148,164.986908 106.636055,165.019928 107.765938,165.091705 
	C107.366158,166.768814 106.588409,168.407211 105.410614,170.011459 
	C104.981354,169.546127 104.952133,169.114929 104.873909,168.363266 
z" />
    <path fill="#444E7C" opacity="1.000000" stroke="none" d="
M194.520905,73.828171 
	C193.641693,75.144890 192.431549,76.576157 190.889954,78.045258 
	C191.768997,76.702972 192.979477,75.322845 194.520905,73.828171 
z" />
    <path fill="#444E7C" opacity="1.000000" stroke="none" d="
M190.389984,83.354843 
	C190.766220,85.210548 190.975525,87.488861 190.877380,89.917984 
	C190.454315,87.971672 190.338684,85.874573 190.389984,83.354843 
z" />
    <path fill="#77A3EE" opacity="1.000000" stroke="none" d="
M118.375961,180.973740 
	C118.369499,178.294952 118.578339,175.281219 119.111694,172.104767 
	C119.154556,174.840942 118.872910,177.739883 118.375961,180.973740 
z" />
    <path fill="#77A3EE" opacity="1.000000" stroke="none" d="
M94.768677,154.809753 
	C93.996902,156.622696 92.987953,158.237091 91.673325,159.950500 
	C91.212250,157.532776 90.605049,154.753204 94.768677,154.809753 
z" />
    <path fill="#A0BCE5" opacity="1.000000" stroke="none" d="
M402.324890,138.736755 
	C401.559631,138.947784 401.022919,138.902420 400.084229,138.797699 
	C400.222748,137.287811 400.763306,135.837296 401.303833,134.386765 
	C401.720398,134.408783 402.136932,134.430801 402.553497,134.452820 
	C402.553497,135.795334 402.553497,137.137848 402.324890,138.736755 
z" />
    <path fill="#77A3EE" opacity="1.000000" stroke="none" d="
M79.191315,191.347733 
	C79.830536,192.757736 80.372444,194.565186 80.822845,196.786514 
	C80.185547,195.381989 79.639771,193.563583 79.191315,191.347733 
z" />
    <path fill="#92B6ED" opacity="1.000000" stroke="none" d="
M395.751129,162.222015 
	C396.314026,162.002213 396.627991,161.970734 397.168884,161.880142 
	C396.540558,163.567429 395.683197,165.293121 394.542480,167.180588 
	C394.207367,167.123016 394.155548,166.903687 394.065552,166.348602 
	C394.519684,164.818939 395.011993,163.625015 395.751129,162.222015 
z" />
    <path fill="#77A3EE" opacity="1.000000" stroke="none" d="
M77.377533,176.307434 
	C77.888725,177.450851 78.270271,178.963455 78.411270,180.711349 
	C77.863113,179.523315 77.555504,178.099960 77.377533,176.307434 
z" />
    <path fill="#D7EBF7" opacity="1.000000" stroke="none" d="
M121.647675,159.969421 
	C121.235245,159.310806 121.147629,158.548386 121.089912,157.059082 
	C121.125381,155.871536 121.130959,155.410873 121.136543,154.950195 
	C121.415192,156.588669 121.693840,158.227142 121.647675,159.969421 
z" />
    <path fill="#77A3EE" opacity="1.000000" stroke="none" d="
M112.056412,154.877319 
	C111.576836,156.631561 111.133545,158.287140 110.404221,160.029861 
	C110.118195,160.116989 109.977623,159.982544 109.919922,159.547058 
	C109.789261,158.377487 109.716301,157.643402 109.643341,156.909317 
	C109.918991,156.314850 110.194641,155.720398 110.992653,154.939636 
	C111.688438,154.694382 111.861870,154.635391 112.035309,154.576401 
	C112.035309,154.576401 112.092690,154.778656 112.056412,154.877319 
z" />
    <path fill="#A0BCE5" opacity="1.000000" stroke="none" d="
M401.337158,147.796204 
	C400.954254,147.805908 400.790314,147.539413 400.423584,147.143555 
	C400.225555,146.287262 400.209106,145.573349 400.239502,144.507736 
	C400.678497,143.842575 401.070679,143.529144 401.687378,143.100403 
	C401.800415,144.492386 401.688873,145.999680 401.337158,147.796204 
z" />
    <path fill="#77A3EE" opacity="1.000000" stroke="none" d="
M78.446594,185.271881 
	C78.934929,186.124832 79.284706,187.322678 79.403351,188.734497 
	C78.884163,187.837921 78.596092,186.727356 78.446594,185.271881 
z" />
    <path fill="#4D567D" opacity="1.000000" stroke="none" d="
M152.551666,51.795723 
	C151.627731,51.005009 150.804108,49.893040 149.947479,48.468933 
	C150.826981,49.262684 151.739471,50.368576 152.551666,51.795723 
z" />
    <path fill="#444E7C" opacity="1.000000" stroke="none" d="
M131.631836,72.950600 
	C131.222977,73.920143 130.497391,74.945511 129.433533,76.010986 
	C129.835220,75.036209 130.575150,74.021317 131.631836,72.950600 
z" />
    <path fill="#D7EBF7" opacity="1.000000" stroke="none" d="
M109.356567,156.999268 
	C109.716301,157.643402 109.789261,158.377487 109.848984,159.480530 
	C109.835762,159.849472 109.430672,159.964233 109.221359,159.986359 
	C109.031288,159.035400 109.050537,158.062317 109.356567,156.999268 
z" />
    <path fill="#BCD7F8" opacity="1.000000" stroke="none" d="
M86.256340,158.930786 
	C86.121460,158.380920 86.200005,157.896088 86.445862,157.077881 
	C86.864952,157.414551 87.116730,158.084579 87.141830,158.889099 
	C86.915146,159.023590 86.469772,158.995819 86.256340,158.930786 
z" />
    <path fill="#77A3EE" opacity="1.000000" stroke="none" d="
M96.186020,188.796402 
	C95.930923,188.359253 95.906723,187.729980 96.103577,187.011688 
	C96.355408,187.483200 96.386162,188.043747 96.186020,188.796402 
z" />
    <path fill="#77A3EE" opacity="1.000000" stroke="none" d="
M120.776016,154.921783 
	C121.130959,155.410873 121.125381,155.871536 121.065964,156.673752 
	C120.368790,156.562607 119.725449,156.109924 119.033157,155.339706 
	C119.461296,154.979248 119.938400,154.936325 120.776016,154.921783 
z" />
    <path fill="#D7EBF7" opacity="1.000000" stroke="none" d="
M108.563309,162.233032 
	C108.721634,162.864319 108.649864,163.731293 108.347374,164.836960 
	C108.188835,164.206665 108.261024,163.337692 108.563309,162.233032 
z" />
    <path fill="#A0BCE5" opacity="1.000000" stroke="none" d="
M398.874817,139.473221 
	C398.951263,140.116364 398.742706,140.882736 398.284302,141.825012 
	C398.219543,141.199432 398.404694,140.397934 398.874817,139.473221 
z" />
    <path fill="#72A0EB" opacity="1.000000" stroke="none" d="
M179.223129,163.793823 
	C178.940292,163.821808 178.754684,163.638031 178.569061,163.454239 
	C178.669388,163.357300 178.769714,163.260361 179.082367,163.140060 
	C179.294708,163.116699 179.320343,163.582047 179.223129,163.793823 
z" />
    <path fill="#92B6ED" opacity="1.000000" stroke="none" d="
M400.212555,152.953796 
	C400.016022,152.827835 400.059296,152.585495 400.289001,152.210571 
	C400.593567,152.323013 400.585876,152.576157 400.212555,152.953796 
z" />
    <path fill="#CED5E2" opacity="1.000000" stroke="none" d="
M46.225555,153.040314 
	C46.481644,153.024048 46.697746,153.267090 46.901665,153.765045 
	C46.654846,153.779846 46.420208,153.539749 46.225555,153.040314 
z" />
    <path fill="#D7EBF7" opacity="1.000000" stroke="none" d="
M111.907990,154.473541 
	C111.861870,154.635391 111.688438,154.694382 111.241898,154.723145 
	C111.161522,154.363358 111.432144,154.255951 111.907990,154.473541 
z" />
    <path fill="#F9F9FB" opacity="1.000000" stroke="none" d="
M248.007050,102.590919 
	C247.686462,101.912865 246.986954,101.161064 247.102402,100.567863 
	C248.708862,92.313118 260.771393,81.006294 268.975922,79.943878 
	C281.957672,78.262848 289.031891,88.083519 283.648987,101.572159 
	C281.214081,102.066231 279.411835,102.254860 277.607452,102.278038 
	C267.740936,102.404770 257.873901,102.490868 248.007050,102.590919 
z" />
    <path fill="#F2F3F8" opacity="1.000000" stroke="none" d="
M138.159485,91.431870 
	C137.639511,86.662674 138.091080,82.501442 142.487488,80.307617 
	C147.238358,77.936897 152.434158,80.687187 153.690598,85.910164 
	C153.844833,86.551277 153.918213,87.218681 153.962219,87.878372 
	C154.309692,93.087021 150.800095,100.302048 146.908051,100.508804 
	C141.501633,100.796021 139.927460,95.962372 138.159485,91.431870 
z" />
    <path fill="#293365" opacity="1.000000" stroke="none" d="
M248.166718,102.929718 
	C257.873901,102.490868 267.740936,102.404770 277.607452,102.278038 
	C279.411835,102.254860 281.214081,102.066231 283.481598,101.905518 
	C283.381897,102.542793 282.812805,103.830261 282.254791,103.825485 
	C270.944580,103.728722 259.635620,103.483772 248.166718,102.929718 
z" />
    <path fill="#4998F1" opacity="1.000000" stroke="none" d="
M102.594429,160.092270 
	C102.996216,162.364700 103.005775,164.726227 103.017151,167.528351 
	C103.226021,170.122253 103.433090,172.275528 103.640160,174.428818 
	C100.520409,169.864975 100.018387,165.119415 102.594429,160.092270 
z" />
    <path fill="#CFE4FA" opacity="1.000000" stroke="none" d="
M137.149155,172.760040 
	C137.766037,172.220398 138.258514,172.048920 138.750977,171.877441 
	C139.388855,174.567551 140.226059,177.234039 140.549088,179.961441 
	C140.652557,180.835266 139.396164,181.870163 138.761963,182.831375 
	C137.921783,181.875519 136.441879,180.964096 136.371765,179.954742 
	C136.215485,177.705200 136.763626,175.406708 137.149155,172.760040 
z" />
    <path fill="#C4E1F9" opacity="1.000000" stroke="none" d="
M240.037842,181.498077 
	C240.077896,177.894547 240.223022,174.710297 240.368149,171.526047 
	C240.984024,171.485184 241.599899,171.444305 242.215775,171.403427 
	C242.776428,174.356888 243.631058,177.292267 243.813950,180.268936 
	C243.992020,183.166962 242.447678,183.757599 240.037842,181.498077 
z" />
</svg>